<svg width="340" height="160" viewBox="0 0 340 160" xmlns="http://www.w3.org/2000/svg">
	<g id="main" stroke-linecap="round" fill-rule="evenodd" font-size="9pt" stroke="#999999" stroke-width="0.25mm" fill="#8c97c8">
		<path d="M 33.2 89.5 L 21.2 89.5 L 8 34.3 L 19.4 34.3 L 27.7 72.2 L 37.8 34.3 L 51 34.3 L 60.7 72.8 L 69.1 34.3 L 80.3 34.3 L 67 89.5 L 55.1 89.5 L 44.2 48.3 L 33.2 89.5 Z M 117.9 89.5 L 107.5 89.5 L 107.5 34.3 L 118.3 34.3 L 140.9 71.1 L 140.9 34.3 L 151.2 34.3 L 151.2 89.5 L 140.1 89.5 L 117.9 53.5 L 117.9 89.5 Z M 294.1 89.5 L 283 89.5 L 283 34.3 L 294.1 34.3 L 294.1 58.8 L 316.6 34.3 L 331.5 34.3 L 310.8 55.8 L 332.7 89.5 L 318.3 89.5 L 303.1 63.6 L 294.1 72.8 L 294.1 89.5 Z M 161.1 56.3 A 47 47 90 0 0 160.8 62.2 A 47 47 90 0 0 160.8 62.9 Q 160.9 75.6 168 82.9 Q 175.3 90.4 187.6 90.4 A 34.2 34.2 90 0 0 193 90 A 24.1 24.1 90 0 0 207 82.9 A 23.4 23.4 90 0 0 209.1 80.3 Q 212.1 76.1 213.4 70.5 A 39.5 39.5 90 0 0 214.2 62 A 48 48 90 0 0 214.2 60.6 Q 214.1 56.1 213.1 52.2 A 24.9 24.9 90 0 0 206.9 41 A 23.8 23.8 90 0 0 196 34.5 A 31.8 31.8 90 0 0 187.4 33.4 A 36 36 90 0 0 182 33.8 A 26.9 26.9 90 0 0 175.5 35.6 A 19.7 19.7 90 0 0 172.6 37.1 A 22.9 22.9 90 0 0 168.4 40.5 A 25.9 25.9 90 0 0 163.3 48.1 A 24.7 24.7 90 0 0 162.4 50.5 Q 161.5 53.1 161.1 56.3 Z m 59.9 0 A 47 47 90 0 0 220.7 62.2 A 47 47 90 0 0 220.7 62.9 Q 220.8 75.6 227.9 82.9 Q 235.2 90.4 247.5 90.4 A 34.2 34.2 90 0 0 252.9 90 A 24.1 24.1 90 0 0 266.9 82.9 A 23.4 23.4 90 0 0 269 80.3 Q 272 76.1 273.3 70.5 A 39.5 39.5 90 0 0 274.1 62 A 48 48 90 0 0 274.1 60.6 Q 274 56.1 273 52.2 A 24.9 24.9 90 0 0 266.8 41 A 23.8 23.8 90 0 0 255.9 34.5 A 31.8 31.8 90 0 0 247.3 33.4 A 36 36 90 0 0 241.9 33.8 A 26.9 26.9 90 0 0 235.4 35.6 A 19.7 19.7 90 0 0 232.5 37.1 A 22.9 22.9 90 0 0 228.3 40.5 A 25.9 25.9 90 0 0 223.2 48.1 A 24.7 24.7 90 0 0 222.3 50.5 Q 221.4 53.1 221 56.3 Z M 172.2 61.9 Q 172.2 71.2 176.5 76.1 Q 180.9 80.9 187.5 80.9 Q 194.2 80.9 198.5 76.1 Q 201.7 72.4 202.5 65.9 A 36.1 36.1 90 0 0 202.7 61.7 Q 202.7 55.8 201.1 51.7 A 14.1 14.1 90 0 0 198.6 47.6 A 13.7 13.7 90 0 0 189.1 43 A 19 19 90 0 0 187.5 42.9 A 16.3 16.3 90 0 0 182.3 43.7 A 13.6 13.6 90 0 0 176.4 47.6 Q 173.2 51.2 172.5 57.6 A 35.9 35.9 90 0 0 172.2 61.9 Z M 232.1 61.9 Q 232.1 71.2 236.4 76.1 Q 240.8 80.9 247.4 80.9 Q 254.1 80.9 258.3 76.1 Q 261.6 72.4 262.4 65.9 A 36.1 36.1 90 0 0 262.6 61.7 Q 262.6 55.8 261 51.7 A 14.1 14.1 90 0 0 258.5 47.6 A 13.7 13.7 90 0 0 249 43 A 19 19 90 0 0 247.4 42.9 A 16.3 16.3 90 0 0 242.2 43.7 A 13.6 13.6 90 0 0 236.3 47.6 Q 233.1 51.2 232.4 57.6 A 35.9 35.9 90 0 0 232.1 61.9" vector-effect="non-scaling-stroke"/>
	</g>
	<g id="hook" stroke-linecap="round" fill-rule="evenodd" font-size="9pt" stroke="#999999" stroke-width="0.25mm" fill="#e59400">
		<path d="M 85.7 24.3 A 10 10 0 1 1 96.8 24.3 L 96.8 122 A 1 1 0 0 0 140.1 122 L 131.6 122 C 144.6 118 146.6 115 151.2 98 L 151.2 122 A 1 1 0 0 1 85.6 122 L 85.7 24.3 Z Z M 91.2 11 A 1 1 0 0 1 91.2 20 A 1 1 0 0 1 91.2 11" vector-effect="non-scaling-stroke"/>
	</g>
</svg>